:SAMPLES-PER-SECOND 30
:FULLY-SPECIFIED
:DEGREES
181
root  7.092866372 37.83244336 -0.3281200026 -174.6550293 -77.48899841 173.8410034
lowerback  17.76059914 4.179299831 -2.416399956
upperback  6.868249893 4.569019794 -0.4966250062
thorax  -2.71848011 2.03350997 -0.05396769941
lowerneck  -2.5704 7.960209846 1.992519975
upperneck  10.29059982 10.66409969 -2.255079985
head  4.08039999 5.201660156 -0.6148800254
lclavicle  0 -9.442270133e-015 7.951389973e-016
lhumerus  14.21360016 -9.794839859 74.37539673
lradius  2.537551302e-031 -2.45554015e-031 135.9409943
lwrist  -7.062250077e-031 -0 1.660069942
lhand  -1.496451383e-031 -27.76390076 20.11240005
lfingers  90 7.125020027 -90
lthumb  89.89689403 5.08795885 91.16245106
rclavicle  0 -9.442270133e-015 7.951389973e-016
rhumerus  32.57939911 26.83849907 -73.04509735
rradius  -1.988302228e-031 2.918132672e-031 124.2689972
rwrist  7.062250077e-031 -1.765562519e-031 -9.215499878
rhand  -7.920061211e-032 -33.2840004 9.303460121
rfingers  -90 -7.125020027 -90
rthumb  -92.93752616 -24.25625642 -97.11982154
rfemur  -14.62699986 19.77729988 1.598860025
rtibia  -0 0 57.47510147
rfoot  -0 -19.62470055 -11.13230038
rtoes  5.373923086 19.29304026 -105.8922705
lfemur  -35.53319931 -4.159589767 -9.234840393
ltibia  -0 0 55.83549881
lfoot  4.516299713e-032 -12.22379971 4.107480049
ltoes  -4.250644065 -19.5611806 -102.515957
182
root  7.164310846 37.79177628 -0.4428355713 -172.2329712 -78.26100159 171.6209717
lowerback  17.2635994 4.147900105 -3.011940002
upperback  6.752120018 4.467100143 -0.6012979746
thorax  -2.616280079 1.986850023 0.2143249959
lowerneck  -2.471149921 7.930920124 1.221690059
upperneck  10.18159962 10.64990044 -2.055089951
head  3.956029892 5.176259995 -0.4319519997
lclavicle  0 -9.442270133e-015 7.951389973e-016
lhumerus  13.84809971 -9.34624958 74.35839844
lradius  2.546576894e-031 -2.446178685e-031 136.1519928
lwrist  -7.062250077e-031 -0 2.274290085
lhand  -1.496451383e-031 -27.76390076 20.11240005
lfingers  90 7.125020027 -90
lthumb  89.89689403 5.08795885 91.16245106
rclavicle  0 -9.442270133e-015 7.951389973e-016
rhumerus  32.69309998 26.6928997 -73.00370026
rradius  -1.999695503e-031 2.910337082e-031 124.4929962
rwrist  0 -1.765562519e-031 -8.834950447
rhand  -7.920061211e-032 -33.2840004 9.303460121
rfingers  -90 -7.125020027 -90
rthumb  -92.93752616 -24.25625642 -97.11982154
rfemur  -13.37300014 19.3864994 1.70539999
rtibia  -0 0 56.51409912
rfoot  -0 -21.6704998 -11.9836998
rtoes  5.373923086 19.29304026 -105.8922705
lfemur  -35.54259872 -4.343140125 -9.269800186
ltibia  -0 0 54.78889847
lfoot  4.516362912e-032 -12.22749996 3.053879976
ltoes  -4.250644065 -19.5611806 -102.515957
183
root  7.247444213 37.78977882 -0.5629244282 -170.1920166 -79.14299774 170.0620117
lowerback  16.6704998 4.15749979 -3.337369919
upperback  6.587659836 4.479730129 -0.6499789953
thorax  -2.500519991 2.002990007 0.3718479872
lowerneck  -2.501240015 7.796299934 0.4005500078
upperneck  10.07830048 10.49429989 -1.809470057
head  3.852149963 5.081019878 -0.2278189957
lclavicle  0 -9.442270133e-015 7.951389973e-016
lhumerus  13.66450024 -9.146109581 74.46430206
lradius  2.555015624e-031 -2.437363165e-031 136.3500061
lwrist  -7.062250077e-031 -0 2.661040068
lhand  -1.496451383e-031 -27.76390076 20.11240005
lfingers  90 7.125020027 -90
lthumb  89.89689403 5.08795885 91.16245106
rclavicle  0 -9.442270133e-015 7.951389973e-016
rhumerus  32.70159912 26.43580055 -72.88189697
rradius  -2.017234026e-031 2.898208226e-031 124.8389969
rwrist  0 -3.531125038e-031 -8.460209846
rhand  -7.920061211e-032 -33.2840004 9.303460121
rfingers  -90 -7.125020027 -90
rthumb  -92.93752616 -24.25625642 -97.11982154
rfemur  -12.73460007 19.14209938 1.93603003
rtibia  -0 0 55.3791008
rfoot  -0 -23.36269951 -12.88479996
rtoes  5.373923086 19.29304026 -105.8922705
lfemur  -35.87239838 -4.071829796 -9.184149742
ltibia  -0 0 53.69710159
lfoot  4.511483883e-032 -11.9382 1.51809001
ltoes  -4.250644065 -19.5611806 -102.515957
184
root  7.347777509 37.84733269 -0.6721599834 -169.0029907 -80.10749817 169.1030273
lowerback  16.55690002 4.066430092 -3.453010082
upperback  6.445199966 4.367839813 -0.5636299849
thorax  -2.603179932 1.955780029 0.5493379831
lowerneck  -2.396369934 7.742450237 -0.8436509967
upperneck  9.944660187 10.45779991 -1.480640054
head  3.685230017 5.033949852 0.06819459796
lclavicle  0 -9.442270133e-015 7.951389973e-016
lhumerus  13.19139957 -8.573530197 74.72029877
lradius  2.567107378e-031 -2.424624455e-031 136.6349945
lwrist  -3.531125038e-031 -1.765562519e-031 3.151170015
lhand  -1.496451383e-031 -27.76390076 20.11240005
lfingers  90 7.125020027 -90
lthumb  89.89689403 5.08795885 91.16245106
rclavicle  0 -9.442270133e-015 7.951389973e-016
rhumerus  32.7507019 26.68330002 -72.57630157
rradius  -2.036813958e-031 2.884481398e-031 125.2269974
rwrist  1.412450015e-030 -1.765562519e-031 -7.812339783
rhand  -7.920061211e-032 -33.2840004 9.303460121
rfingers  -90 -7.125020027 -90
rthumb  -92.93752616 -24.25625642 -97.11982154
rfemur  -11.95400047 18.99959946 2.474129915
rtibia  -0 0 54.38970184
rfoot  -0 -24.52680016 -13.54279995
rtoes  5.373923086 19.29304026 -105.8922705
lfemur  -35.94079971 -3.439960003 -9.175600052
ltibia  -0 0 52.58390045
lfoot  4.747474271e-032 -11.30930042 0.02741659991
ltoes  -4.250644065 -19.5611806 -102.515957
185
root  7.467978019 37.93866616 -0.7882444877 -169.7940063 -81.28220367 170.1430054
lowerback  16.8260994 4.002319813 -3.178070068
upperback  6.165780067 4.340909958 -0.3850080073
thorax  -3.034379959 1.959849954 0.561792016
lowerneck  -2.012459993 7.639920235 -2.003950119
upperneck  9.736960411 10.33290005 -1.134340048
head  3.448620081 4.950550079 0.3352679908
lclavicle  0 -9.442270133e-015 7.951389973e-016
lhumerus  12.56439972 -8.259679794 75.21880341
lradius  2.570448456e-031 -2.421082149e-031 136.7140045
lwrist  -7.062250077e-031 -1.765562519e-031 3.287919998
lhand  -1.496451383e-031 -27.76390076 20.11240005
lfingers  90 7.125020027 -90
lthumb  89.89689403 5.08795885 91.16245106
rclavicle  0 -9.442270133e-015 7.951389973e-016
rhumerus  32.41839981 26.82690048 -72.37180328
rradius  -2.059005113e-031 2.86868297e-031 125.6689987
rwrist  7.062250077e-031 -0 -7.031559944
rhand  -7.920061211e-032 -33.2840004 9.303460121
rfingers  -90 -7.125020027 -90
rthumb  -92.93752616 -24.25625642 -97.11982154
rfemur  -11.47399998 18.80080032 3.484529972
rtibia  -0 0 53.79439926
rfoot  -0 -24.97900009 -14.2887001
rtoes  5.373923086 19.29304026 -105.8922705
lfemur  -36.11199951 -2.46468997 -8.920450211
ltibia  -0 0 51.43939972
lfoot  4.484404475e-032 -10.1729002 -1.316609979
ltoes  -4.250644065 -19.5611806 -102.515957
